<svg width="20" height="21" viewBox="0 0 20 21" fill="none" xmlns="http://www.w3.org/2000/svg">
<path d="M7 3H3.83333C3.36662 3 3.13327 3 2.95501 3.09082C2.79821 3.17072 2.67072 3.29821 2.59082 3.45501C2.5 3.63327 2.5 3.86662 2.5 4.33333V7.5C2.5 7.96671 2.5 8.20007 2.59082 8.37833C2.67072 8.53513 2.79821 8.66261 2.95501 8.74251C3.13327 8.83333 3.36662 8.83333 3.83333 8.83333H7C7.46671 8.83333 7.70007 8.83333 7.87833 8.74251C8.03513 8.66261 8.16261 8.53513 8.24251 8.37833C8.33333 8.20007 8.33333 7.96671 8.33333 7.5V4.33333C8.33333 3.86662 8.33333 3.63327 8.24251 3.45501C8.16261 3.29821 8.03513 3.17072 7.87833 3.09082C7.70007 3 7.46671 3 7 3Z" stroke="#2F2F2F" stroke-width="1.3" stroke-linecap="round" stroke-linejoin="round"/>
<path d="M16.1667 3H13C12.5333 3 12.2999 3 12.1217 3.09082C11.9648 3.17072 11.8374 3.29821 11.7575 3.45501C11.6667 3.63327 11.6667 3.86662 11.6667 4.33333V7.5C11.6667 7.96671 11.6667 8.20007 11.7575 8.37833C11.8374 8.53513 11.9648 8.66261 12.1217 8.74251C12.2999 8.83333 12.5333 8.83333 13 8.83333H16.1667C16.6334 8.83333 16.8668 8.83333 17.045 8.74251C17.2018 8.66261 17.3293 8.53513 17.4092 8.37833C17.5 8.20007 17.5 7.96671 17.5 7.5V4.33333C17.5 3.86662 17.5 3.63327 17.4092 3.45501C17.3293 3.29821 17.2018 3.17072 17.045 3.09082C16.8668 3 16.6334 3 16.1667 3Z" stroke="#2F2F2F" stroke-width="1.3" stroke-linecap="round" stroke-linejoin="round"/>
<path d="M16.1667 12.1667H13C12.5333 12.1667 12.2999 12.1667 12.1217 12.2576C11.9648 12.3375 11.8374 12.4649 11.7575 12.6217C11.6667 12.8 11.6667 13.0333 11.6667 13.5001V16.6667C11.6667 17.1335 11.6667 17.3668 11.7575 17.5451C11.8374 17.7019 11.9648 17.8293 12.1217 17.9092C12.2999 18.0001 12.5333 18.0001 13 18.0001H16.1667C16.6334 18.0001 16.8668 18.0001 17.045 17.9092C17.2018 17.8293 17.3293 17.7019 17.4092 17.5451C17.5 17.3668 17.5 17.1335 17.5 16.6667V13.5001C17.5 13.0333 17.5 12.8 17.4092 12.6217C17.3293 12.4649 17.2018 12.3375 17.045 12.2576C16.8668 12.1667 16.6334 12.1667 16.1667 12.1667Z" stroke="#2F2F2F" stroke-width="1.3" stroke-linecap="round" stroke-linejoin="round"/>
<path d="M7 12.1667H3.83333C3.36662 12.1667 3.13327 12.1667 2.95501 12.2576C2.79821 12.3375 2.67072 12.4649 2.59082 12.6217C2.5 12.8 2.5 13.0333 2.5 13.5001V16.6667C2.5 17.1335 2.5 17.3668 2.59082 17.5451C2.67072 17.7019 2.79821 17.8293 2.95501 17.9092C3.13327 18.0001 3.36662 18.0001 3.83333 18.0001H7C7.46671 18.0001 7.70007 18.0001 7.87833 17.9092C8.03513 17.8293 8.16261 17.7019 8.24251 17.5451C8.33333 17.3668 8.33333 17.1335 8.33333 16.6667V13.5001C8.33333 13.0333 8.33333 12.8 8.24251 12.6217C8.16261 12.4649 8.03513 12.3375 7.87833 12.2576C7.70007 12.1667 7.46671 12.1667 7 12.1667Z" stroke="#2F2F2F" stroke-width="1.3" stroke-linecap="round" stroke-linejoin="round"/>
</svg>
