<svg width="17" height="17" viewBox="0 0 17 17" fill="none" xmlns="http://www.w3.org/2000/svg">
<path d="M14.875 7.08335H2.125M11.3333 1.41669V4.25002M5.66667 1.41669V4.25002M5.525 15.5834H11.475C12.6651 15.5834 13.2601 15.5834 13.7147 15.3517C14.1146 15.148 14.4397 14.823 14.6434 14.4231C14.875 13.9685 14.875 13.3735 14.875 12.1834V6.23335C14.875 5.04324 14.875 4.44818 14.6434 3.99363C14.4397 3.59378 14.1146 3.2687 13.7147 3.06496C13.2601 2.83335 12.6651 2.83335 11.475 2.83335H5.525C4.33489 2.83335 3.73983 2.83335 3.28527 3.06496C2.88542 3.2687 2.56034 3.59378 2.35661 3.99363C2.125 4.44818 2.125 5.04324 2.125 6.23335V12.1834C2.125 13.3735 2.125 13.9685 2.35661 14.4231C2.56034 14.823 2.88542 15.148 3.28527 15.3517C3.73983 15.5834 4.33489 15.5834 5.525 15.5834Z" stroke="#6C6C6C" stroke-width="1.3" stroke-linecap="round" stroke-linejoin="round"/>
</svg>
