<svg width="46" height="46" viewBox="0 0 46 46" fill="none" xmlns="http://www.w3.org/2000/svg">
<g clip-path="url(#clip0_620_12072)">
<rect width="46" height="46" rx="23" fill="#FBD6D6"/>
<path d="M25.0743 21.1798L22.5 23.6532L19.9136 21.1798L18.2014 22.8248L20.7879 25.2982L18.2136 27.7715L19.9257 29.4165L22.5 26.9432L25.0743 29.4165L26.7864 27.7715L24.2121 25.2982L26.7864 22.8248L25.0743 21.1798ZM26.75 13.6315L25.5357 12.4648H19.4643L18.25 13.6315H14V15.9648H31V13.6315H26.75ZM15.2143 31.1315C15.2143 32.4148 16.3071 33.4648 17.6429 33.4648H27.3571C28.6929 33.4648 29.7857 32.4148 29.7857 31.1315V17.1315H15.2143V31.1315ZM17.6429 19.4648H27.3571V31.1315H17.6429V19.4648Z" fill="#C1423F"/>
</g>
<defs>
<clipPath id="clip0_620_12072">
<rect width="46" height="46" rx="23" fill="white"/>
</clipPath>
</defs>
</svg>
