<svg width="110" height="109" viewBox="0 0 110 109" fill="none" xmlns="http://www.w3.org/2000/svg">
<g clip-path="url(#clip0_1414_5343)">
<path d="M98.1458 109H11.8542C5.59348 109 0.5 103.907 0.5 97.6458V11.3542C0.5 5.09348 5.59348 0 11.8542 0H98.1458C104.407 0 109.5 5.09348 109.5 11.3542V97.6458C109.5 103.907 104.407 109 98.1458 109ZM11.8542 4.54167C8.09821 4.54167 5.04167 7.59821 5.04167 11.3542V97.6458C5.04167 101.402 8.09821 104.458 11.8542 104.458H98.1458C101.902 104.458 104.958 101.402 104.958 97.6458V11.3542C104.958 7.59821 101.902 4.54167 98.1458 4.54167H11.8542Z" fill="#2F2F2F"/>
<path d="M107.229 22.7084H2.77083C1.51733 22.7084 0.5 21.6934 0.5 20.4376C0.5 19.1818 1.51733 18.1667 2.77083 18.1667H107.229C108.483 18.1667 109.5 19.1818 109.5 20.4376C109.5 21.6934 108.483 22.7084 107.229 22.7084ZM14.125 13.6251C13.8298 13.6251 13.5346 13.557 13.2621 13.4434C12.9896 13.3299 12.7398 13.1709 12.5127 12.9665C12.3083 12.7372 12.1494 12.4897 12.0358 12.2172C11.9223 11.9447 11.8542 11.6495 11.8542 11.3542C11.8542 11.059 11.9223 10.7638 12.0358 10.4913C12.1494 10.2188 12.3083 9.96904 12.5127 9.74196C12.7398 9.53758 12.9896 9.37862 13.2621 9.26508C14.1023 8.90175 15.1015 9.10612 15.7373 9.74196C15.9417 9.96904 16.1006 10.2188 16.2142 10.4913C16.3277 10.7638 16.3958 11.059 16.3958 11.3542C16.3958 11.6495 16.3277 11.9447 16.2142 12.2172C16.1006 12.4897 15.9417 12.7372 15.7373 12.9665C15.5102 13.1709 15.2604 13.3299 14.9879 13.4434C14.7154 13.557 14.4202 13.6251 14.125 13.6251ZM23.2083 13.6251C22.9131 13.6251 22.6179 13.557 22.3454 13.4434C22.0729 13.3299 21.8231 13.1709 21.596 12.9665C21.3917 12.7372 21.2327 12.4897 21.1192 12.2172C21.0056 11.9447 20.9375 11.6495 20.9375 11.3542C20.9375 11.059 21.0056 10.7638 21.1192 10.4913C21.2327 10.2188 21.3917 9.96904 21.596 9.74196C21.8231 9.53758 22.0729 9.37862 22.3454 9.26508C23.1856 8.90175 24.1848 9.10612 24.8206 9.74196C25.025 9.96904 25.184 10.2188 25.2975 10.4913C25.411 10.7638 25.4792 11.059 25.4792 11.3542C25.4792 11.6495 25.411 11.9447 25.2975 12.2172C25.184 12.4897 25.025 12.7372 24.8206 12.9665C24.5935 13.1709 24.3437 13.3299 24.0712 13.4434C23.7987 13.557 23.5035 13.6251 23.2083 13.6251ZM82.25 79.4792H27.75C26.4965 79.4792 25.4792 78.4642 25.4792 77.2084C25.4792 75.9526 26.4965 74.9376 27.75 74.9376H82.25C83.5035 74.9376 84.5208 75.9526 84.5208 77.2084C84.5208 78.4642 83.5035 79.4792 82.25 79.4792ZM75.4375 88.5626H34.5625C33.309 88.5626 32.2917 87.5475 32.2917 86.2917C32.2917 85.036 33.309 84.0209 34.5625 84.0209H75.4375C76.691 84.0209 77.7083 85.036 77.7083 86.2917C77.7083 87.5475 76.691 88.5626 75.4375 88.5626ZM57.2708 70.3959H52.7292C48.9732 70.3959 45.9167 67.3394 45.9167 63.5834V45.4167C45.9167 41.6608 48.9732 38.6042 52.7292 38.6042H57.2708C61.0268 38.6042 64.0833 41.6608 64.0833 45.4167V63.5834C64.0833 67.3394 61.0268 70.3959 57.2708 70.3959ZM52.7292 43.1459C51.4779 43.1459 50.4583 44.1632 50.4583 45.4167V63.5834C50.4583 64.8369 51.4779 65.8542 52.7292 65.8542H57.2708C58.5221 65.8542 59.5417 64.8369 59.5417 63.5834V45.4167C59.5417 44.1632 58.5221 43.1459 57.2708 43.1459H52.7292ZM39.1042 61.3126H25.4792C24.7343 61.3126 24.0372 60.947 23.6125 60.3338C23.1879 59.7207 23.0925 58.9418 23.3514 58.2424L30.1639 40.0757C30.6067 38.9017 31.9147 38.3159 33.0887 38.7473C34.2627 39.1879 34.8577 40.4981 34.4172 41.6721L28.756 56.7709H39.1042C40.3577 56.7709 41.375 57.786 41.375 59.0417C41.375 60.2975 40.3577 61.3126 39.1042 61.3126Z" fill="#2F2F2F"/>
<path d="M36.8333 70.3959C35.5798 70.3959 34.5625 69.3809 34.5625 68.1251V49.9584C34.5625 48.7027 35.5798 47.6876 36.8333 47.6876C38.0868 47.6876 39.1042 48.7027 39.1042 49.9584V68.1251C39.1042 69.3809 38.0868 70.3959 36.8333 70.3959ZM84.5208 61.3126H70.8958C70.151 61.3126 69.4539 60.947 69.0292 60.3339C68.6046 59.7208 68.5092 58.9419 68.7681 58.2425L75.5806 40.0758C76.0234 38.9018 77.3314 38.3159 78.5054 38.7473C79.6794 39.1879 80.2744 40.4982 79.8338 41.6722L74.1727 56.7709H84.5208C85.7743 56.7709 86.7917 57.786 86.7917 59.0418C86.7917 60.2976 85.7743 61.3126 84.5208 61.3126Z" fill="#2F2F2F"/>
<path d="M82.2498 70.3958C80.9963 70.3958 79.979 69.3808 79.979 68.125V49.9583C79.979 48.7026 80.9963 47.6875 82.2498 47.6875C83.5033 47.6875 84.5207 48.7026 84.5207 49.9583V68.125C84.5207 69.3808 83.5033 70.3958 82.2498 70.3958Z" fill="#2F2F2F"/>
</g>
<defs>
<clipPath id="clip0_1414_5343">
<rect width="109" height="109" fill="white" transform="translate(0.5)"/>
</clipPath>
</defs>
</svg>
