<svg width="30" height="30" viewBox="0 0 30 30" fill="none" xmlns="http://www.w3.org/2000/svg">
<path d="M27.5 26.25V23.75C27.5 21.4202 25.9065 19.4626 23.75 18.9075M19.375 4.11345C21.2074 4.85519 22.5 6.65164 22.5 8.75C22.5 10.8484 21.2074 12.6449 19.375 13.3865M21.25 26.25C21.25 23.9202 21.25 22.7555 20.8694 21.8366C20.3619 20.6115 19.3885 19.6381 18.1634 19.1306C17.2445 18.75 16.0798 18.75 13.75 18.75H10C7.67029 18.75 6.50544 18.75 5.58659 19.1306C4.36144 19.6381 3.38808 20.6115 2.8806 21.8366C2.5 22.7555 2.5 23.9202 2.5 26.25M16.875 8.75C16.875 11.5114 14.6364 13.75 11.875 13.75C9.11357 13.75 6.875 11.5114 6.875 8.75C6.875 5.98857 9.11357 3.75 11.875 3.75C14.6364 3.75 16.875 5.98857 16.875 8.75Z" stroke="#9580C5" stroke-width="1.4" stroke-linecap="round" stroke-linejoin="round"/>
</svg>
