<svg width="31" height="30" viewBox="0 0 31 30" fill="none" xmlns="http://www.w3.org/2000/svg">
<path d="M9.125 14.3055V17.7778M9.125 14.3055V5.97223C9.125 4.82163 10.0764 3.88889 11.25 3.88889C12.4236 3.88889 13.375 4.82163 13.375 5.97223M9.125 14.3055C9.125 13.155 8.1736 12.2222 7 12.2222C5.8264 12.2222 4.875 13.155 4.875 14.3055V17.0834C4.875 22.8363 9.63198 27.5 15.5 27.5C21.368 27.5 26.125 22.8363 26.125 17.0834V10.1389C26.125 8.9883 25.1736 8.05555 24 8.05555C22.8264 8.05555 21.875 8.9883 21.875 10.1389M13.375 5.97223V13.6111M13.375 5.97223V4.58334C13.375 3.43274 14.3264 2.5 15.5 2.5C16.6736 2.5 17.625 3.43274 17.625 4.58334V5.97223M21.875 10.1389V5.97223C21.875 4.82163 20.9236 3.88889 19.75 3.88889C18.5764 3.88889 17.625 4.82163 17.625 5.97223M21.875 10.1389V13.6111M17.625 5.97223V13.6111" stroke="#7EAA55" stroke-width="1.4" stroke-linecap="round" stroke-linejoin="round"/>
</svg>
