<svg width="20" height="21" viewBox="0 0 20 21" fill="none" xmlns="http://www.w3.org/2000/svg">
<path d="M5.75 10.0371V12.3519M5.75 10.0371V4.48156C5.75 3.7145 6.38427 3.09267 7.16667 3.09267C7.94907 3.09267 8.58334 3.7145 8.58334 4.48156M5.75 10.0371C5.75 9.27008 5.11573 8.64823 4.33333 8.64823C3.55093 8.64823 2.91667 9.27008 2.91667 10.0371V11.889C2.91667 15.7242 6.08798 18.8334 10 18.8334C13.912 18.8334 17.0833 15.7242 17.0833 11.889V7.25934C17.0833 6.49228 16.4491 5.87045 15.6667 5.87045C14.8843 5.87045 14.25 6.49228 14.25 7.25934M8.58334 4.48156V9.57416M8.58334 4.48156V3.55564C8.58334 2.78857 9.21758 2.16675 10 2.16675C10.7824 2.16675 11.4167 2.78857 11.4167 3.55564V4.48156M14.25 7.25934V4.48156C14.25 3.7145 13.6158 3.09267 12.8333 3.09267C12.0509 3.09267 11.4167 3.7145 11.4167 4.48156M14.25 7.25934V9.57416M11.4167 4.48156V9.57416" stroke="#2F2F2F" stroke-width="1.3" stroke-linecap="round" stroke-linejoin="round"/>
</svg>
