<svg width="20" height="21" viewBox="0 0 20 21" fill="none" xmlns="http://www.w3.org/2000/svg">
<path d="M10 2.58332V10.5M10 10.5L17.0833 6.56474M10 10.5L2.91667 6.56474M10 10.5V18.4167M17.0833 14.4352L10.6475 10.8598C10.4112 10.7284 10.293 10.6628 10.1679 10.637C10.0571 10.6143 9.94292 10.6143 9.83217 10.637C9.707 10.6628 9.58883 10.7284 9.3525 10.8598L2.91667 14.4352M17.5 13.8821V7.11786C17.5 6.83233 17.5 6.68956 17.4579 6.56223C17.4207 6.44958 17.3598 6.34618 17.2795 6.25894C17.1886 6.16032 17.0638 6.09099 16.8142 5.95232L10.6475 2.52639C10.4112 2.39509 10.293 2.32944 10.1679 2.3037C10.0571 2.28093 9.94292 2.28093 9.83217 2.3037C9.707 2.32944 9.58883 2.39509 9.3525 2.52639L3.18581 5.95232C2.93621 6.09099 2.81141 6.16032 2.72053 6.25894C2.64013 6.34618 2.57929 6.44958 2.54207 6.56223C2.5 6.68956 2.5 6.83233 2.5 7.11786V13.8821C2.5 14.1677 2.5 14.3104 2.54207 14.4378C2.57929 14.5504 2.64013 14.6538 2.72053 14.741C2.81141 14.8397 2.93621 14.909 3.18581 15.0477L9.3525 18.4736C9.58883 18.6049 9.707 18.6705 9.83217 18.6963C9.94292 18.7191 10.0571 18.7191 10.1679 18.6963C10.293 18.6705 10.4112 18.6049 10.6475 18.4736L16.8142 15.0477C17.0638 14.909 17.1886 14.8397 17.2795 14.741C17.3598 14.6538 17.4207 14.5504 17.4579 14.4378C17.5 14.3104 17.5 14.1677 17.5 13.8821Z" stroke="#2F2F2F" stroke-width="1.2" stroke-linecap="round" stroke-linejoin="round"/>
</svg>
