<svg width="31" height="30" viewBox="0 0 31 30" fill="none" xmlns="http://www.w3.org/2000/svg">
<path d="M15.8334 3.1251V15.0001M15.8334 15.0001L26.4584 9.09724M15.8334 15.0001L5.20837 9.09724M15.8334 15.0001V26.8751M26.4584 20.9029L16.8046 15.5398C16.4501 15.3428 16.2729 15.2443 16.0852 15.2056C15.919 15.1715 15.7477 15.1715 15.5816 15.2056C15.3939 15.2443 15.2166 15.3428 14.8621 15.5398L5.20837 20.9029M27.0834 20.0732V9.92691C27.0834 9.49861 27.0834 9.28446 27.0202 9.09346C26.9645 8.92449 26.8731 8.76939 26.7526 8.63853C26.6162 8.4906 26.4291 8.3866 26.0546 8.1786L16.8046 3.03971C16.4501 2.84276 16.2729 2.74429 16.0852 2.70568C15.919 2.67151 15.7477 2.67151 15.5816 2.70568C15.3939 2.74429 15.2166 2.84276 14.8621 3.03971L5.61209 8.1786C5.23769 8.3866 5.05049 8.4906 4.91416 8.63853C4.79357 8.76939 4.70231 8.92449 4.64647 9.09346C4.58337 9.28446 4.58337 9.49861 4.58337 9.92691V20.0732C4.58337 20.5016 4.58337 20.7158 4.64647 20.9068C4.70231 21.0758 4.79357 21.2309 4.91416 21.3616C5.05049 21.5096 5.23769 21.6136 5.61209 21.8216L14.8621 26.9605C15.2166 27.1575 15.3939 27.2559 15.5816 27.2945C15.7477 27.3288 15.919 27.3288 16.0852 27.2945C16.2729 27.2559 16.4501 27.1575 16.8046 26.9605L26.0546 21.8216C26.4291 21.6136 26.6162 21.5096 26.7526 21.3616C26.8731 21.2309 26.9645 21.0758 27.0202 20.9068C27.0834 20.7158 27.0834 20.5016 27.0834 20.0732Z" stroke="#4E73BE" stroke-width="1.3" stroke-linecap="round" stroke-linejoin="round"/>
</svg>
