<svg width="19" height="20" viewBox="0 0 19 20" fill="none" xmlns="http://www.w3.org/2000/svg">
<g clip-path="url(#clip0_83_18)">
<path d="M4.2108 11.8153L3.54944 14.2842L1.13217 14.3354C0.409762 12.9954 0 11.4624 0 9.83332C0 8.25799 0.383117 6.77242 1.06222 5.46436H1.06274L3.21479 5.8589L4.15751 7.99804C3.9602 8.57327 3.85266 9.19077 3.85266 9.83332C3.85273 10.5307 3.97905 11.1988 4.2108 11.8153Z" fill="#FBBB00"/>
<path d="M18.834 8.05859C18.9431 8.63327 19 9.22676 19 9.83331C19 10.5135 18.9285 11.1769 18.7923 11.8168C18.3298 13.9945 17.1214 15.8961 15.4475 17.2418L15.4469 17.2412L12.7363 17.1029L12.3527 14.7081C13.4634 14.0567 14.3315 13.0372 14.7888 11.8168H9.70886V8.05859H18.834Z" fill="#518EF8"/>
<path d="M15.4469 17.2412L15.4474 17.2417C13.8194 18.5503 11.7513 19.3333 9.5 19.3333C5.88217 19.3333 2.73674 17.3112 1.13217 14.3354L4.2108 11.8153C5.01307 13.9564 7.07854 15.4806 9.5 15.4806C10.5408 15.4806 11.5159 15.1992 12.3526 14.7081L15.4469 17.2412Z" fill="#28B446"/>
<path d="M15.5638 2.52039L12.4862 5.03997C11.6203 4.49869 10.5967 4.18601 9.50001 4.18601C7.02374 4.18601 4.91963 5.78012 4.15756 7.99803L1.06274 5.46435H1.06223C2.64331 2.416 5.82841 0.333313 9.50001 0.333313C11.8051 0.333313 13.9185 1.15439 15.5638 2.52039Z" fill="#F14336"/>
</g>
<defs>
<clipPath id="clip0_83_18">
<rect width="19" height="19" fill="white" transform="translate(0 0.333313)"/>
</clipPath>
</defs>
</svg>
