<svg width="20" height="20" viewBox="0 0 20 20" fill="none" xmlns="http://www.w3.org/2000/svg">
<g clip-path="url(#clip0_4_257)">
<path fill-rule="evenodd" clip-rule="evenodd" d="M3.07888 9.99976C4.01196 10.9878 6.75508 13.5623 9.99992 13.5623C11.397 13.5623 12.6991 13.0739 13.802 12.4515C14.0873 12.2903 14.4498 12.3913 14.611 12.6767C14.7719 12.9621 14.671 13.3245 14.3857 13.4855C13.1147 14.2028 11.6096 14.7498 9.99992 14.7498C5.49514 14.7498 1.82488 10.3796 1.82488 10.3796C1.64171 10.1595 1.64171 9.83999 1.82488 9.61994C1.82488 9.61994 5.49514 5.24969 9.99992 5.24969C14.5047 5.24969 18.175 9.61994 18.175 9.61994C18.3581 9.83999 18.3581 10.1595 18.175 10.3796C18.175 10.3796 17.7184 10.9304 16.9278 11.64C16.8269 11.7306 16.7203 11.8238 16.6087 11.9189C16.3593 12.1312 15.9843 12.1011 15.7718 11.8516C15.5595 11.6021 15.5895 11.227 15.8392 11.0147C15.9425 10.9266 16.041 10.8402 16.1345 10.7562C16.4632 10.4612 16.7283 10.1968 16.9189 9.99743C15.9837 9.00787 13.2424 6.43724 9.99992 6.43724C6.75508 6.43724 4.01196 9.01171 3.07888 9.99976Z" fill="#2F2F2F"/>
<path fill-rule="evenodd" clip-rule="evenodd" d="M10 7.03125C8.36155 7.03125 7.03125 8.36155 7.03125 10C7.03125 11.6385 8.36155 12.9688 10 12.9688C11.6385 12.9688 12.9688 11.6385 12.9688 10C12.9688 8.36155 11.6385 7.03125 10 7.03125ZM10 8.21875C10.983 8.21875 11.7812 9.01705 11.7812 10C11.7812 10.983 10.983 11.7812 10 11.7812C9.01705 11.7812 8.21875 10.983 8.21875 10C8.21875 9.01705 9.01705 8.21875 10 8.21875Z" fill="#2F2F2F"/>
<path fill-rule="evenodd" clip-rule="evenodd" d="M3.11955 5.73043L16.1821 15.2304C16.4469 15.4231 16.8186 15.3645 17.0112 15.0993C17.2042 14.8343 17.1454 14.4628 16.8803 14.2699L3.81782 4.76987C3.553 4.57723 3.18131 4.63582 2.98864 4.90103C2.79567 5.16597 2.85444 5.53753 3.11955 5.73043Z" fill="#2F2F2F"/>
</g>
<defs>
<clipPath id="clip0_4_257">
<rect width="19" height="19" fill="white" transform="translate(0.5 0.5)"/>
</clipPath>
</defs>
</svg>
